<mxfile host="app.diagrams.net" modified="2021-08-13T08:54:22.338Z" agent="5.0 (Windows NT 10.0; Win64; x64) AppleWebKit/537.36 (KHTML, like Gecko) Chrome/92.0.4515.107 Safari/537.36" etag="QRFZ0QubjB6uOKOa5Nfx" version="14.9.6" type="github">
  <diagram id="keJzFON12EUG-4eSnJi0" name="Page-1">
    <mxGraphModel dx="1038" dy="547" grid="1" gridSize="10" guides="1" tooltips="1" connect="1" arrows="1" fold="1" page="1" pageScale="1" pageWidth="827" pageHeight="1169" math="0" shadow="0">
      <root>
        <mxCell id="0" />
        <mxCell id="1" parent="0" />
        <mxCell id="F72I3m6Kgk_SiuKDUUOy-1" value="" style="rounded=0;whiteSpace=wrap;html=1;fillColor=none;" vertex="1" parent="1">
          <mxGeometry x="54" y="320" width="130" height="90" as="geometry" />
        </mxCell>
        <mxCell id="F72I3m6Kgk_SiuKDUUOy-2" value="" style="rounded=0;whiteSpace=wrap;html=1;fillColor=none;" vertex="1" parent="1">
          <mxGeometry x="53" y="30" width="730" height="110" as="geometry" />
        </mxCell>
        <mxCell id="F72I3m6Kgk_SiuKDUUOy-41" style="edgeStyle=orthogonalEdgeStyle;rounded=0;orthogonalLoop=1;jettySize=auto;html=1;entryX=0.16;entryY=0.55;entryDx=0;entryDy=0;entryPerimeter=0;strokeColor=#006633;strokeWidth=2;" edge="1" parent="1" source="F72I3m6Kgk_SiuKDUUOy-3" target="F72I3m6Kgk_SiuKDUUOy-40">
          <mxGeometry relative="1" as="geometry" />
        </mxCell>
        <mxCell id="F72I3m6Kgk_SiuKDUUOy-3" value="" style="fontColor=#0066CC;verticalAlign=top;verticalLabelPosition=bottom;labelPosition=center;align=center;html=1;outlineConnect=0;fillColor=#CCCCCC;strokeColor=#6881B3;gradientColor=none;gradientDirection=north;strokeWidth=2;shape=mxgraph.networks.patch_panel;" vertex="1" parent="1">
          <mxGeometry x="250" y="80" width="100" height="35" as="geometry" />
        </mxCell>
        <mxCell id="F72I3m6Kgk_SiuKDUUOy-4" value="ADP应用服务器" style="text;html=1;strokeColor=none;fillColor=none;align=center;verticalAlign=middle;whiteSpace=wrap;rounded=0;" vertex="1" parent="1">
          <mxGeometry x="255" y="50" width="90" height="20" as="geometry" />
        </mxCell>
        <mxCell id="F72I3m6Kgk_SiuKDUUOy-5" value="&lt;font style=&quot;font-size: 18px&quot;&gt;炼&lt;br&gt;化&lt;br&gt;公&lt;br&gt;司&lt;/font&gt;" style="text;html=1;strokeColor=none;fillColor=none;align=center;verticalAlign=middle;whiteSpace=wrap;rounded=0;" vertex="1" parent="1">
          <mxGeometry x="54" y="35" width="40" height="100" as="geometry" />
        </mxCell>
        <mxCell id="F72I3m6Kgk_SiuKDUUOy-6" value="&lt;font color=&quot;#000000&quot;&gt;&lt;b&gt;VPN&lt;/b&gt;&lt;/font&gt;" style="html=1;outlineConnect=0;fillColor=#CCCCCC;strokeColor=#6881B3;gradientColor=none;gradientDirection=north;strokeWidth=2;shape=mxgraph.networks.bus;gradientColor=none;gradientDirection=north;fontColor=#ffffff;perimeter=backbonePerimeter;backboneSize=20;" vertex="1" parent="1">
          <mxGeometry x="50" y="220" width="730" height="21.16" as="geometry" />
        </mxCell>
        <mxCell id="F72I3m6Kgk_SiuKDUUOy-7" value="" style="fontColor=#0066CC;verticalAlign=top;verticalLabelPosition=bottom;labelPosition=center;align=center;html=1;outlineConnect=0;fillColor=#CCCCCC;strokeColor=#6881B3;gradientColor=none;gradientDirection=north;strokeWidth=2;shape=mxgraph.networks.patch_panel;" vertex="1" parent="1">
          <mxGeometry x="64" y="360" width="100" height="35" as="geometry" />
        </mxCell>
        <mxCell id="F72I3m6Kgk_SiuKDUUOy-8" value="ADP应用服务器" style="text;html=1;strokeColor=none;fillColor=none;align=center;verticalAlign=middle;whiteSpace=wrap;rounded=0;" vertex="1" parent="1">
          <mxGeometry x="69" y="330" width="90" height="20" as="geometry" />
        </mxCell>
        <mxCell id="F72I3m6Kgk_SiuKDUUOy-9" value="&lt;b&gt;&lt;font style=&quot;font-size: 14px&quot;&gt;延安炼油厂&lt;/font&gt;&lt;/b&gt;" style="text;html=1;strokeColor=none;fillColor=none;align=center;verticalAlign=middle;whiteSpace=wrap;rounded=0;" vertex="1" parent="1">
          <mxGeometry x="79" y="420" width="80" height="20" as="geometry" />
        </mxCell>
        <mxCell id="F72I3m6Kgk_SiuKDUUOy-10" value="" style="rounded=0;whiteSpace=wrap;html=1;fillColor=none;" vertex="1" parent="1">
          <mxGeometry x="204" y="320" width="130" height="90" as="geometry" />
        </mxCell>
        <mxCell id="F72I3m6Kgk_SiuKDUUOy-11" value="" style="fontColor=#0066CC;verticalAlign=top;verticalLabelPosition=bottom;labelPosition=center;align=center;html=1;outlineConnect=0;fillColor=#CCCCCC;strokeColor=#6881B3;gradientColor=none;gradientDirection=north;strokeWidth=2;shape=mxgraph.networks.patch_panel;" vertex="1" parent="1">
          <mxGeometry x="214" y="360" width="100" height="35" as="geometry" />
        </mxCell>
        <mxCell id="F72I3m6Kgk_SiuKDUUOy-12" value="ADP应用服务器" style="text;html=1;strokeColor=none;fillColor=none;align=center;verticalAlign=middle;whiteSpace=wrap;rounded=0;" vertex="1" parent="1">
          <mxGeometry x="219" y="330" width="90" height="20" as="geometry" />
        </mxCell>
        <mxCell id="F72I3m6Kgk_SiuKDUUOy-13" value="&lt;b&gt;&lt;font style=&quot;font-size: 14px&quot;&gt;延安石油化工厂&lt;/font&gt;&lt;/b&gt;" style="text;html=1;strokeColor=none;fillColor=none;align=center;verticalAlign=middle;whiteSpace=wrap;rounded=0;" vertex="1" parent="1">
          <mxGeometry x="224" y="420" width="100" height="20" as="geometry" />
        </mxCell>
        <mxCell id="F72I3m6Kgk_SiuKDUUOy-14" value="" style="rounded=0;whiteSpace=wrap;html=1;fillColor=none;" vertex="1" parent="1">
          <mxGeometry x="354" y="320" width="130" height="90" as="geometry" />
        </mxCell>
        <mxCell id="F72I3m6Kgk_SiuKDUUOy-15" value="" style="fontColor=#0066CC;verticalAlign=top;verticalLabelPosition=bottom;labelPosition=center;align=center;html=1;outlineConnect=0;fillColor=#CCCCCC;strokeColor=#6881B3;gradientColor=none;gradientDirection=north;strokeWidth=2;shape=mxgraph.networks.patch_panel;" vertex="1" parent="1">
          <mxGeometry x="364" y="360" width="100" height="35" as="geometry" />
        </mxCell>
        <mxCell id="F72I3m6Kgk_SiuKDUUOy-16" value="ADP应用服务器" style="text;html=1;strokeColor=none;fillColor=none;align=center;verticalAlign=middle;whiteSpace=wrap;rounded=0;" vertex="1" parent="1">
          <mxGeometry x="369" y="330" width="90" height="20" as="geometry" />
        </mxCell>
        <mxCell id="F72I3m6Kgk_SiuKDUUOy-17" value="&lt;b&gt;&lt;font style=&quot;font-size: 14px&quot;&gt;永坪炼油厂&lt;/font&gt;&lt;/b&gt;" style="text;html=1;strokeColor=none;fillColor=none;align=center;verticalAlign=middle;whiteSpace=wrap;rounded=0;" vertex="1" parent="1">
          <mxGeometry x="379" y="420" width="80" height="20" as="geometry" />
        </mxCell>
        <mxCell id="F72I3m6Kgk_SiuKDUUOy-18" value="" style="rounded=0;whiteSpace=wrap;html=1;fillColor=none;" vertex="1" parent="1">
          <mxGeometry x="504" y="320" width="130" height="90" as="geometry" />
        </mxCell>
        <mxCell id="F72I3m6Kgk_SiuKDUUOy-19" value="" style="fontColor=#0066CC;verticalAlign=top;verticalLabelPosition=bottom;labelPosition=center;align=center;html=1;outlineConnect=0;fillColor=#CCCCCC;strokeColor=#6881B3;gradientColor=none;gradientDirection=north;strokeWidth=2;shape=mxgraph.networks.patch_panel;" vertex="1" parent="1">
          <mxGeometry x="514" y="360" width="100" height="35" as="geometry" />
        </mxCell>
        <mxCell id="F72I3m6Kgk_SiuKDUUOy-20" value="ADP应用服务器" style="text;html=1;strokeColor=none;fillColor=none;align=center;verticalAlign=middle;whiteSpace=wrap;rounded=0;" vertex="1" parent="1">
          <mxGeometry x="519" y="330" width="90" height="20" as="geometry" />
        </mxCell>
        <mxCell id="F72I3m6Kgk_SiuKDUUOy-21" value="&lt;b&gt;&lt;font style=&quot;font-size: 14px&quot;&gt;榆林炼油厂&lt;/font&gt;&lt;/b&gt;" style="text;html=1;strokeColor=none;fillColor=none;align=center;verticalAlign=middle;whiteSpace=wrap;rounded=0;" vertex="1" parent="1">
          <mxGeometry x="529" y="420" width="80" height="20" as="geometry" />
        </mxCell>
        <mxCell id="F72I3m6Kgk_SiuKDUUOy-22" value="" style="rounded=0;whiteSpace=wrap;html=1;fillColor=none;" vertex="1" parent="1">
          <mxGeometry x="654" y="320" width="130" height="90" as="geometry" />
        </mxCell>
        <mxCell id="F72I3m6Kgk_SiuKDUUOy-23" value="" style="fontColor=#0066CC;verticalAlign=top;verticalLabelPosition=bottom;labelPosition=center;align=center;html=1;outlineConnect=0;fillColor=#CCCCCC;strokeColor=#6881B3;gradientColor=none;gradientDirection=north;strokeWidth=2;shape=mxgraph.networks.patch_panel;" vertex="1" parent="1">
          <mxGeometry x="664" y="360" width="100" height="35" as="geometry" />
        </mxCell>
        <mxCell id="F72I3m6Kgk_SiuKDUUOy-24" value="ADP应用服务器" style="text;html=1;strokeColor=none;fillColor=none;align=center;verticalAlign=middle;whiteSpace=wrap;rounded=0;" vertex="1" parent="1">
          <mxGeometry x="669" y="330" width="90" height="20" as="geometry" />
        </mxCell>
        <mxCell id="F72I3m6Kgk_SiuKDUUOy-25" value="&lt;b&gt;&lt;font style=&quot;font-size: 14px&quot;&gt;油气化工厂公司&lt;/font&gt;&lt;/b&gt;" style="text;html=1;strokeColor=none;fillColor=none;align=center;verticalAlign=middle;whiteSpace=wrap;rounded=0;" vertex="1" parent="1">
          <mxGeometry x="669" y="420" width="105" height="20" as="geometry" />
        </mxCell>
        <mxCell id="F72I3m6Kgk_SiuKDUUOy-34" value="" style="curved=1;endArrow=classic;html=1;entryX=0.508;entryY=0;entryDx=0;entryDy=0;entryPerimeter=0;strokeWidth=2;strokeColor=#006633;exitX=0.13;exitY=0.77;exitDx=0;exitDy=0;exitPerimeter=0;" edge="1" parent="1" source="F72I3m6Kgk_SiuKDUUOy-40" target="F72I3m6Kgk_SiuKDUUOy-1">
          <mxGeometry width="50" height="50" relative="1" as="geometry">
            <mxPoint x="410" y="141" as="sourcePoint" />
            <mxPoint x="330" y="160" as="targetPoint" />
            <Array as="points">
              <mxPoint x="280" y="180" />
            </Array>
          </mxGeometry>
        </mxCell>
        <mxCell id="F72I3m6Kgk_SiuKDUUOy-36" value="" style="curved=1;endArrow=classic;html=1;strokeWidth=2;strokeColor=#006633;exitX=0.31;exitY=0.8;exitDx=0;exitDy=0;exitPerimeter=0;" edge="1" parent="1" source="F72I3m6Kgk_SiuKDUUOy-40">
          <mxGeometry width="50" height="50" relative="1" as="geometry">
            <mxPoint x="410" y="143" as="sourcePoint" />
            <mxPoint x="270" y="310" as="targetPoint" />
            <Array as="points">
              <mxPoint x="340" y="190" />
            </Array>
          </mxGeometry>
        </mxCell>
        <mxCell id="F72I3m6Kgk_SiuKDUUOy-37" value="" style="curved=1;endArrow=classic;html=1;strokeWidth=2;entryX=0.5;entryY=0;entryDx=0;entryDy=0;exitX=0.465;exitY=0.925;exitDx=0;exitDy=0;exitPerimeter=0;strokeColor=#006633;" edge="1" parent="1" source="F72I3m6Kgk_SiuKDUUOy-40" target="F72I3m6Kgk_SiuKDUUOy-14">
          <mxGeometry width="50" height="50" relative="1" as="geometry">
            <mxPoint x="440" y="210" as="sourcePoint" />
            <mxPoint x="490" y="160" as="targetPoint" />
            <Array as="points">
              <mxPoint x="400" y="200" />
            </Array>
          </mxGeometry>
        </mxCell>
        <mxCell id="F72I3m6Kgk_SiuKDUUOy-38" value="" style="curved=1;endArrow=classic;html=1;strokeWidth=2;entryX=0.5;entryY=0;entryDx=0;entryDy=0;strokeColor=#006633;exitX=0.8;exitY=0.8;exitDx=0;exitDy=0;exitPerimeter=0;" edge="1" parent="1" source="F72I3m6Kgk_SiuKDUUOy-40" target="F72I3m6Kgk_SiuKDUUOy-18">
          <mxGeometry width="50" height="50" relative="1" as="geometry">
            <mxPoint x="410" y="140" as="sourcePoint" />
            <mxPoint x="560" y="310" as="targetPoint" />
            <Array as="points">
              <mxPoint x="460" y="190" />
            </Array>
          </mxGeometry>
        </mxCell>
        <mxCell id="F72I3m6Kgk_SiuKDUUOy-39" value="" style="curved=1;endArrow=classic;html=1;strokeWidth=2;entryX=0.5;entryY=0;entryDx=0;entryDy=0;exitX=0.96;exitY=0.7;exitDx=0;exitDy=0;strokeColor=#006633;exitPerimeter=0;" edge="1" parent="1" source="F72I3m6Kgk_SiuKDUUOy-40" target="F72I3m6Kgk_SiuKDUUOy-22">
          <mxGeometry width="50" height="50" relative="1" as="geometry">
            <mxPoint x="540" y="210" as="sourcePoint" />
            <mxPoint x="590" y="160" as="targetPoint" />
            <Array as="points">
              <mxPoint x="590" y="210" />
            </Array>
          </mxGeometry>
        </mxCell>
        <mxCell id="F72I3m6Kgk_SiuKDUUOy-40" value="数据同步器" style="ellipse;shape=cloud;whiteSpace=wrap;html=1;" vertex="1" parent="1">
          <mxGeometry x="407" y="53" width="120" height="80" as="geometry" />
        </mxCell>
      </root>
    </mxGraphModel>
  </diagram>
</mxfile>
